<svg id="Layer_1" data-name="Layer 1" xmlns="http://www.w3.org/2000/svg" viewBox="0 0 97.05 119.81"><defs><style>.cls-1,.cls-2,.cls-3,.cls-4,.cls-6,.cls-7,.cls-8{fill:none;}.cls-1,.cls-2,.cls-3,.cls-4,.cls-5,.cls-7{stroke:#231f20;}.cls-1,.cls-2,.cls-3,.cls-4,.cls-5,.cls-6,.cls-7,.cls-8{stroke-miterlimit:10;}.cls-2{stroke-width:7px;}.cls-3,.cls-8{stroke-width:4px;}.cls-4,.cls-6{stroke-width:6px;}.cls-5{fill:#3f499f;stroke-width:2px;}.cls-6,.cls-8{stroke:#fff;}.cls-7{stroke-width:5px;}</style></defs><title>JD</title><path class="cls-1" d="M48.53,103.34" transform="translate(0 1.5)"/><path class="cls-2" d="M89.32,72.33c0,23.46-18.09,42.49-40.41,42.49v-85C71.22,29.85,89.32,48.87,89.32,72.33Z" transform="translate(0 1.5)"/><path class="cls-1" d="M49,64.15" transform="translate(0 1.5)"/><path class="cls-1" d="M49,64.15" transform="translate(0 1.5)"/><path class="cls-1" d="M14,2" transform="translate(0 1.5)"/><path class="cls-1" d="M97.05,2" transform="translate(0 1.5)"/><line class="cls-2" y1="3.5" x2="97.05" y2="3.5"/><path class="cls-3" d="M48.53,87.34" transform="translate(0 1.5)"/><polyline class="cls-4" points="48.53 3.5 48.53 27.23 48.53 30.46 48.53 44.07 48.53 45.96 48.53 52.7 48.53 47.36 48.53 62.06"/><path class="cls-5" d="M97.35,66.37" transform="translate(0 1.5)"/><path class="cls-5" d="M48.53,65.9" transform="translate(0 1.5)"/><path class="cls-4" d="M15.7,60.56H49V93.83A33.28,33.28,0,0,1,15.7,60.56Z" transform="translate(0 1.5)"/><path class="cls-6" d="M63.06,75.94a25.4,25.4,0,0,1-25.4,25.4V75.94h25.4Z" transform="translate(0 1.5)"/><line class="cls-3" x1="15.7" y1="62.06" x2="15.7" y2="62.06"/><polyline class="cls-7" points="50.36 62.06 46.15 62.06 33.03 62.06 15.7 62.06"/><polyline class="cls-3" points="48.98 95.33 48.98 78.7 48.98 62.06"/><line class="cls-6" x1="63.06" y1="77.44" x2="37.66" y2="77.44"/><path class="cls-3" d="M37.66,75.94" transform="translate(0 1.5)"/><polyline class="cls-8" points="37.66 102.84 37.66 77.44 37.66 77.44"/></svg>