<?xml version="1.0" encoding="utf-8"?>
<!-- Generator: Adobe Illustrator 19.2.1, SVG Export Plug-In . SVG Version: 6.00 Build 0)  -->
<svg version="1.1" id="Layer_1" xmlns="http://www.w3.org/2000/svg" xmlns:xlink="http://www.w3.org/1999/xlink" x="0px" y="0px"
	 viewBox="0 0 1632 432" style="enable-background:new 0 0 1632 432;" xml:space="preserve">
<style type="text/css">
	.st0{fill:none;stroke:#CCCCCC;stroke-width:0.5;stroke-miterlimit:10;}
	.st1{fill:none;stroke:#F2F2F2;stroke-width:0.5;stroke-miterlimit:10;}
	.st2{fill:none;}
	.st3{fill:none;stroke:#999999;stroke-width:4;stroke-miterlimit:10;}
	.st4{fill:none;stroke:#999999;stroke-width:2;stroke-miterlimit:10;}
	.st5{fill:none;stroke:#999999;stroke-miterlimit:10;}
	.st6{fill:none;stroke:#FA7C92;stroke-width:8;stroke-linecap:round;stroke-miterlimit:10;}
	.st7{fill:#666666;}
	.st8{fill:#E6E6E6;}
	.st9{fill:#6EC4DB;}
	.st10{fill:none;stroke:#6EC4DB;stroke-width:12;stroke-miterlimit:10;}
	.st11{fill:#FA7C92;}
	.st12{fill:#FFFFFF;}
</style>
<g>
	<line class="st0" x1="48" y1="0" x2="1584.2" y2="0"/>
	<line class="st1" x1="48" y1="9.6" x2="1584.2" y2="9.6"/>
	<line class="st1" x1="48" y1="19.2" x2="1584.2" y2="19.2"/>
	<line class="st1" x1="48" y1="28.8" x2="1584.2" y2="28.8"/>
	<line class="st1" x1="48" y1="38.4" x2="1584.2" y2="38.4"/>
	<line class="st0" x1="48" y1="48" x2="1584.2" y2="48"/>
	<line class="st1" x1="48" y1="57.6" x2="1584.2" y2="57.6"/>
	<line class="st1" x1="48" y1="67.2" x2="1584.2" y2="67.2"/>
	<line class="st1" x1="48" y1="76.8" x2="1584.2" y2="76.8"/>
	<line class="st1" x1="48" y1="86.4" x2="1584.2" y2="86.4"/>
	<line class="st0" x1="48" y1="96" x2="1584.2" y2="96"/>
	<line class="st1" x1="48" y1="105.6" x2="1584.2" y2="105.6"/>
	<line class="st1" x1="48" y1="115.2" x2="1584.2" y2="115.2"/>
	<line class="st1" x1="48" y1="124.8" x2="1584.2" y2="124.8"/>
	<line class="st1" x1="48" y1="134.4" x2="1584.2" y2="134.4"/>
	<line class="st0" x1="48" y1="144" x2="1584.2" y2="144"/>
	<line class="st1" x1="48" y1="153.6" x2="1584.2" y2="153.6"/>
	<line class="st1" x1="48" y1="163.2" x2="1584.2" y2="163.2"/>
	<line class="st1" x1="48" y1="172.8" x2="1584.2" y2="172.8"/>
	<line class="st1" x1="48" y1="182.4" x2="1584.2" y2="182.4"/>
	<line class="st0" x1="48" y1="192" x2="1584.2" y2="192"/>
	<line class="st1" x1="48" y1="201.6" x2="1584.2" y2="201.6"/>
	<line class="st1" x1="48" y1="211.2" x2="1584.2" y2="211.2"/>
	<line class="st1" x1="48" y1="220.8" x2="1584.2" y2="220.8"/>
	<line class="st1" x1="48" y1="230.4" x2="1584.2" y2="230.4"/>
	<line class="st0" x1="48" y1="240" x2="1584.2" y2="240"/>
	<line class="st1" x1="48" y1="249.6" x2="1584.2" y2="249.6"/>
	<line class="st1" x1="48" y1="259.2" x2="1584.2" y2="259.2"/>
	<line class="st1" x1="48" y1="268.8" x2="1584.2" y2="268.8"/>
	<line class="st1" x1="48" y1="278.4" x2="1584.2" y2="278.4"/>
	<line class="st0" x1="48" y1="288" x2="1584.2" y2="288"/>
	<line class="st1" x1="48" y1="297.6" x2="1584.2" y2="297.6"/>
	<line class="st1" x1="48" y1="307.2" x2="1584.2" y2="307.2"/>
	<line class="st1" x1="48" y1="316.8" x2="1584.2" y2="316.8"/>
	<line class="st1" x1="48" y1="326.4" x2="1584.2" y2="326.4"/>
	<line class="st0" x1="48" y1="336" x2="1584.2" y2="336"/>
	<line class="st1" x1="48" y1="345.6" x2="1584.2" y2="345.6"/>
	<line class="st1" x1="48" y1="355.2" x2="1584.2" y2="355.2"/>
	<line class="st1" x1="48" y1="364.8" x2="1584.2" y2="364.8"/>
	<line class="st1" x1="48" y1="374.4" x2="1584.2" y2="374.4"/>
	<line class="st0" x1="48" y1="384" x2="1584.2" y2="384"/>
</g>
<g>
	<line class="st0" x1="48" y1="0" x2="48" y2="384"/>
	<line class="st1" x1="58.4" y1="0" x2="57.6" y2="384"/>
	<line class="st1" x1="68" y1="0" x2="67.2" y2="384"/>
	<line class="st1" x1="77.6" y1="0" x2="76.8" y2="384"/>
	<line class="st1" x1="87.2" y1="0" x2="86.4" y2="384"/>
	<line class="st0" x1="96.8" y1="0" x2="96" y2="384"/>
	<line class="st1" x1="106.4" y1="0" x2="105.6" y2="384"/>
	<line class="st1" x1="116" y1="0" x2="115.2" y2="384"/>
	<path id="SVGID_x5F_1_x5F_" class="st2" d="M125.6,0l-0.8,384"/>
	<text>	<textPath  xlink:href="#SVGID_x5F_1_x5F_" startOffset="48.34%">
	</textPath>
</text>
	<line class="st1" x1="135.2" y1="0" x2="134.4" y2="384"/>
	<line class="st0" x1="144.8" y1="0" x2="144" y2="384"/>
	<line class="st1" x1="154.4" y1="0" x2="153.6" y2="384"/>
	<line class="st1" x1="164" y1="0" x2="163.2" y2="384"/>
	<line class="st1" x1="173.6" y1="0" x2="172.8" y2="384"/>
	<line class="st1" x1="183.2" y1="0" x2="182.4" y2="384"/>
	<line class="st0" x1="192.8" y1="0" x2="192" y2="384"/>
	<line class="st1" x1="202.4" y1="0" x2="201.6" y2="384"/>
	<line class="st1" x1="212" y1="0" x2="211.2" y2="384"/>
	<line class="st1" x1="221.6" y1="0" x2="220.8" y2="384"/>
	<line class="st1" x1="231.2" y1="0" x2="230.4" y2="384"/>
	<line class="st0" x1="240.8" y1="0" x2="240" y2="384"/>
	<line class="st1" x1="250.4" y1="0" x2="249.6" y2="384"/>
	<line class="st1" x1="260" y1="0" x2="259.2" y2="384"/>
	<line class="st1" x1="269.6" y1="0" x2="268.8" y2="384"/>
	<line class="st1" x1="279.2" y1="0" x2="278.4" y2="384"/>
	<line class="st0" x1="288.8" y1="0" x2="288" y2="384"/>
	<line class="st1" x1="298.4" y1="0" x2="297.6" y2="384"/>
	<line class="st1" x1="308" y1="0" x2="307.2" y2="384"/>
	<line class="st1" x1="317.6" y1="0" x2="316.8" y2="384"/>
	<line class="st1" x1="327.2" y1="0" x2="326.4" y2="384"/>
	<line class="st0" x1="336.8" y1="0" x2="336" y2="384"/>
	<line class="st1" x1="346.4" y1="0" x2="345.6" y2="384"/>
	<line class="st1" x1="356" y1="0" x2="355.2" y2="384"/>
	<line class="st1" x1="365.6" y1="0" x2="364.8" y2="384"/>
	<line class="st1" x1="375.2" y1="0" x2="374.4" y2="384"/>
	<line class="st0" x1="384.8" y1="0" x2="384" y2="384"/>
	<line class="st1" x1="394.4" y1="0" x2="393.6" y2="384"/>
	<line class="st1" x1="404" y1="0" x2="403.2" y2="384"/>
	<line class="st1" x1="413.6" y1="0" x2="412.8" y2="384"/>
	<line class="st1" x1="423.2" y1="0" x2="422.4" y2="384"/>
	<line class="st0" x1="432.8" y1="0" x2="432" y2="384"/>
	<line class="st1" x1="442.4" y1="0" x2="441.6" y2="384"/>
	<line class="st1" x1="452" y1="0" x2="451.2" y2="384"/>
	<line class="st1" x1="461.6" y1="0" x2="460.8" y2="384"/>
	<line class="st1" x1="471.2" y1="0" x2="470.4" y2="384"/>
	<line class="st0" x1="480.8" y1="0" x2="480" y2="384"/>
	<line class="st1" x1="490.4" y1="0" x2="489.6" y2="384"/>
	<line class="st1" x1="500" y1="0" x2="499.2" y2="384"/>
	<line class="st1" x1="509.6" y1="0" x2="508.8" y2="384"/>
	<line class="st1" x1="519.2" y1="0" x2="518.4" y2="384"/>
	<line class="st0" x1="528.8" y1="0" x2="528" y2="384"/>
	<line class="st1" x1="538.4" y1="0" x2="537.6" y2="384"/>
	<line class="st1" x1="548" y1="0" x2="547.2" y2="384"/>
	<line class="st1" x1="557.6" y1="0" x2="556.8" y2="384"/>
	<line class="st1" x1="567.2" y1="0" x2="566.4" y2="384"/>
	<line class="st0" x1="576.8" y1="0" x2="576" y2="384"/>
	<line class="st1" x1="586.4" y1="0" x2="585.6" y2="384"/>
	<line class="st1" x1="596" y1="0" x2="595.2" y2="384"/>
	<line class="st1" x1="605.6" y1="0" x2="604.8" y2="384"/>
	<line class="st1" x1="615.2" y1="0" x2="614.4" y2="384"/>
	<line class="st0" x1="624.8" y1="0" x2="624" y2="384"/>
	<line class="st1" x1="634.4" y1="0" x2="633.6" y2="384"/>
	<line class="st1" x1="644" y1="0" x2="643.2" y2="384"/>
	<line class="st1" x1="653.6" y1="0" x2="652.8" y2="384"/>
	<line class="st1" x1="663.2" y1="0" x2="662.4" y2="384"/>
	<line class="st0" x1="672.8" y1="0" x2="672" y2="384"/>
	<line class="st1" x1="682.4" y1="0" x2="681.6" y2="384"/>
	<line class="st1" x1="692" y1="0" x2="691.2" y2="384"/>
	<line class="st1" x1="701.6" y1="0" x2="700.8" y2="384"/>
	<line class="st1" x1="711.2" y1="0" x2="710.4" y2="384"/>
	<line class="st0" x1="720.8" y1="0" x2="720" y2="384"/>
	<line class="st1" x1="730.4" y1="0" x2="729.6" y2="384"/>
	<line class="st1" x1="740" y1="0" x2="739.2" y2="384"/>
	<line class="st1" x1="749.6" y1="0" x2="748.8" y2="384"/>
	<line class="st1" x1="759.2" y1="0" x2="758.4" y2="384"/>
	<line class="st0" x1="768.8" y1="0" x2="768" y2="384"/>
	<line class="st1" x1="778.4" y1="0" x2="777.6" y2="384"/>
	<line class="st1" x1="788" y1="0" x2="787.2" y2="384"/>
	<line class="st1" x1="797.6" y1="0" x2="796.8" y2="384"/>
	<line class="st1" x1="807.2" y1="0" x2="806.4" y2="384"/>
	<line class="st0" x1="816.8" y1="0" x2="816" y2="384"/>
	<line class="st1" x1="826.4" y1="0" x2="825.6" y2="384"/>
	<line class="st1" x1="836" y1="0" x2="835.2" y2="384"/>
	<line class="st1" x1="845.6" y1="0" x2="844.8" y2="384"/>
	<line class="st1" x1="855.2" y1="0" x2="854.4" y2="384"/>
	<line class="st0" x1="864.8" y1="0" x2="864" y2="384"/>
	<line class="st1" x1="874.4" y1="0" x2="873.6" y2="384"/>
	<line class="st1" x1="884" y1="0" x2="883.2" y2="384"/>
	<line class="st1" x1="893.6" y1="0" x2="892.8" y2="384"/>
	<line class="st1" x1="903.2" y1="0" x2="902.4" y2="384"/>
	<line class="st0" x1="912.8" y1="0" x2="912" y2="384"/>
	<line class="st1" x1="922.4" y1="0" x2="921.6" y2="384"/>
	<line class="st1" x1="932" y1="0" x2="931.2" y2="384"/>
	<line class="st1" x1="941.6" y1="0" x2="940.8" y2="384"/>
	<line class="st1" x1="951.2" y1="0" x2="950.4" y2="384"/>
	<line class="st0" x1="960.8" y1="0" x2="960" y2="384"/>
	<line class="st1" x1="970.4" y1="0" x2="969.6" y2="384"/>
	<line class="st1" x1="980" y1="0" x2="979.2" y2="384"/>
	<line class="st1" x1="989.6" y1="0" x2="988.8" y2="384"/>
	<line class="st1" x1="999.2" y1="0" x2="998.4" y2="384"/>
	<line class="st0" x1="1008.8" y1="0" x2="1008" y2="384"/>
	<line class="st1" x1="1018.4" y1="0" x2="1017.6" y2="384"/>
	<line class="st1" x1="1028" y1="0" x2="1027.2" y2="384"/>
	<line class="st1" x1="1037.6" y1="0" x2="1036.8" y2="384"/>
	<line class="st1" x1="1047.2" y1="0" x2="1046.4" y2="384"/>
	<line class="st0" x1="1056.8" y1="0" x2="1056" y2="384"/>
	<line class="st1" x1="1066.4" y1="0" x2="1065.6" y2="384"/>
	<line class="st1" x1="1076" y1="0" x2="1075.2" y2="384"/>
	<line class="st1" x1="1085.6" y1="0" x2="1084.8" y2="384"/>
	<line class="st1" x1="1095.2" y1="0" x2="1094.4" y2="384"/>
	<line class="st0" x1="1104.8" y1="0" x2="1104" y2="384"/>
	<line class="st1" x1="1114.4" y1="0" x2="1113.6" y2="384"/>
	<line class="st1" x1="1124" y1="0" x2="1123.2" y2="384"/>
	<line class="st1" x1="1133.6" y1="0" x2="1132.8" y2="384"/>
	<line class="st1" x1="1143.2" y1="0" x2="1142.4" y2="384"/>
	<line class="st0" x1="1152.8" y1="0" x2="1152" y2="384"/>
	<path class="st1" d="M1162.4,0c-0.1,25.5-0.1,51-0.2,76.6c-0.2,102.5-0.4,205-0.6,307.4"/>
	<line class="st1" x1="1172" y1="0" x2="1171.2" y2="384"/>
	<line class="st1" x1="1181.6" y1="0" x2="1180.8" y2="384"/>
	<line class="st1" x1="1191.2" y1="0" x2="1190.4" y2="384"/>
	<line class="st0" x1="1200.8" y1="0" x2="1200" y2="384"/>
	<line class="st1" x1="1210.4" y1="0" x2="1209.6" y2="384"/>
	<line class="st1" x1="1220" y1="0" x2="1219.2" y2="384"/>
	<line class="st1" x1="1229.6" y1="0" x2="1228.8" y2="384"/>
	<line class="st1" x1="1239.2" y1="0" x2="1238.4" y2="384"/>
	<line class="st0" x1="1248.8" y1="0" x2="1248" y2="384"/>
	<line class="st1" x1="1258.4" y1="0" x2="1257.6" y2="384"/>
	<line class="st1" x1="1268" y1="0" x2="1267.2" y2="384"/>
	<line class="st1" x1="1277.6" y1="0" x2="1276.8" y2="384"/>
	<line class="st1" x1="1287.2" y1="0" x2="1286.4" y2="384"/>
	<line class="st0" x1="1296.8" y1="0" x2="1296" y2="384"/>
	<line class="st1" x1="1306.4" y1="0" x2="1305.6" y2="384"/>
	<line class="st1" x1="1316" y1="0" x2="1315.2" y2="384"/>
	<line class="st1" x1="1325.6" y1="0" x2="1324.8" y2="384"/>
	<line class="st1" x1="1335.2" y1="0" x2="1334.4" y2="384"/>
	<line class="st0" x1="1344.8" y1="0" x2="1344" y2="384"/>
	<line class="st1" x1="1354.4" y1="0" x2="1353.6" y2="384"/>
	<line class="st1" x1="1364" y1="0" x2="1363.2" y2="384"/>
	<line class="st1" x1="1373.6" y1="0" x2="1372.8" y2="384"/>
	<line class="st1" x1="1383.2" y1="0" x2="1382.4" y2="384"/>
	<line class="st0" x1="1392.8" y1="0" x2="1392" y2="384"/>
	<line class="st1" x1="1402.4" y1="0" x2="1401.6" y2="384"/>
	<line class="st1" x1="1412" y1="0" x2="1411.2" y2="384"/>
	<line class="st1" x1="1421.6" y1="0" x2="1420.8" y2="384"/>
	<line class="st1" x1="1431.2" y1="0" x2="1430.4" y2="384"/>
	<line class="st0" x1="1440.8" y1="0" x2="1440" y2="384"/>
	<line class="st1" x1="1450.4" y1="0" x2="1449.6" y2="384"/>
	<line class="st1" x1="1460" y1="0" x2="1459.2" y2="384"/>
	<line class="st1" x1="1469.6" y1="0" x2="1468.8" y2="384"/>
	<line class="st1" x1="1479.2" y1="0" x2="1478.4" y2="384"/>
	<line class="st0" x1="1488.8" y1="0" x2="1488" y2="384"/>
	<line class="st1" x1="1498.4" y1="0" x2="1497.6" y2="384"/>
	<line class="st1" x1="1508" y1="0" x2="1507.2" y2="384"/>
	<line class="st1" x1="1517.6" y1="0" x2="1516.8" y2="384"/>
	<line class="st1" x1="1527.2" y1="0" x2="1526.4" y2="384"/>
	<line class="st0" x1="1536.8" y1="0" x2="1536" y2="384"/>
	<line class="st1" x1="1546.4" y1="0" x2="1545.6" y2="384"/>
	<line class="st1" x1="1556" y1="0" x2="1555.2" y2="384"/>
	<line class="st1" x1="1565.6" y1="0" x2="1564.8" y2="384"/>
	<line class="st1" x1="1575.2" y1="0" x2="1574.4" y2="384"/>
	<line class="st0" x1="1584.8" y1="0" x2="1584" y2="384"/>
</g>
<line class="st3" x1="48" y1="286" x2="1584" y2="286"/>
<g>
	<line class="st4" x1="48" y1="384.2" x2="48" y2="403.2"/>
	<line class="st4" x1="96" y1="384.2" x2="96" y2="403.2"/>
	<line class="st4" x1="144" y1="384.2" x2="144" y2="403.2"/>
	<line class="st4" x1="192" y1="384.2" x2="192" y2="403.2"/>
	<line class="st4" x1="240" y1="384.2" x2="240" y2="403.2"/>
	<line class="st4" x1="288" y1="384.2" x2="288" y2="403.2"/>
	<line class="st4" x1="336" y1="384.2" x2="336" y2="403.2"/>
	<line class="st4" x1="384" y1="384.2" x2="384" y2="403.2"/>
	<line class="st5" x1="57.6" y1="384" x2="57.6" y2="394"/>
	<line class="st5" x1="67.2" y1="384" x2="67.2" y2="394"/>
	<line class="st5" x1="76.8" y1="384" x2="76.8" y2="394"/>
	<line class="st5" x1="86.4" y1="384" x2="86.4" y2="394"/>
	<line class="st5" x1="105.6" y1="384" x2="105.6" y2="394"/>
	<line class="st5" x1="115.2" y1="384" x2="115.2" y2="394"/>
	<line class="st5" x1="124.8" y1="384" x2="124.8" y2="394"/>
	<line class="st5" x1="134.4" y1="384" x2="134.4" y2="394"/>
	<line class="st5" x1="153.6" y1="384" x2="153.6" y2="394"/>
	<line class="st5" x1="163.2" y1="384" x2="163.2" y2="394"/>
	<line class="st5" x1="172.8" y1="384" x2="172.8" y2="394"/>
	<line class="st5" x1="182.4" y1="384" x2="182.4" y2="394"/>
	<line class="st5" x1="201.6" y1="384" x2="201.6" y2="394"/>
	<line class="st5" x1="211.2" y1="384" x2="211.2" y2="394"/>
	<line class="st5" x1="220.8" y1="384" x2="220.8" y2="394"/>
	<line class="st5" x1="230.4" y1="384" x2="230.4" y2="394"/>
	<line class="st5" x1="249.6" y1="384" x2="249.6" y2="394"/>
	<line class="st5" x1="259.2" y1="384" x2="259.2" y2="394"/>
	<line class="st5" x1="268.8" y1="384" x2="268.8" y2="394"/>
	<line class="st5" x1="278.4" y1="384" x2="278.4" y2="394"/>
	<line class="st5" x1="297.6" y1="384" x2="297.6" y2="394"/>
	<line class="st5" x1="307.2" y1="384" x2="307.2" y2="394"/>
	<line class="st5" x1="316.8" y1="384" x2="316.8" y2="394"/>
	<line class="st5" x1="326.4" y1="384" x2="326.4" y2="394"/>
	<line class="st5" x1="345.6" y1="384" x2="345.6" y2="394"/>
	<line class="st5" x1="355.2" y1="384" x2="355.2" y2="394"/>
	<line class="st5" x1="364.8" y1="384" x2="364.8" y2="394"/>
	<line class="st5" x1="374.4" y1="384" x2="374.4" y2="394"/>
	<line class="st5" x1="393.6" y1="384" x2="393.6" y2="394"/>
	<line class="st5" x1="403.2" y1="384" x2="403.2" y2="394"/>
	<line class="st5" x1="412.8" y1="384" x2="412.8" y2="394"/>
	<line class="st5" x1="422.4" y1="384" x2="422.4" y2="394"/>
	<line class="st4" x1="432" y1="384.2" x2="432" y2="403.2"/>
	<line class="st4" x1="480" y1="384.2" x2="480" y2="403.2"/>
	<line class="st4" x1="528" y1="384.2" x2="528" y2="403.2"/>
	<line class="st4" x1="576" y1="384.2" x2="576" y2="403.2"/>
	<line class="st4" x1="624" y1="384.2" x2="624" y2="403.2"/>
	<line class="st4" x1="672" y1="384.2" x2="672" y2="403.2"/>
	<line class="st4" x1="720" y1="384" x2="720" y2="403"/>
	<line class="st4" x1="768" y1="384" x2="768" y2="403"/>
	<line class="st5" x1="441.6" y1="384" x2="441.6" y2="394"/>
	<line class="st5" x1="451.2" y1="384" x2="451.2" y2="394"/>
	<line class="st5" x1="460.8" y1="384" x2="460.8" y2="394"/>
	<line class="st5" x1="470.4" y1="384" x2="470.4" y2="394"/>
	<line class="st5" x1="489.6" y1="384" x2="489.6" y2="394"/>
	<line class="st5" x1="499.2" y1="384" x2="499.2" y2="394"/>
	<line class="st5" x1="508.8" y1="384" x2="508.8" y2="394"/>
	<line class="st5" x1="518.4" y1="384" x2="518.4" y2="394"/>
	<line class="st5" x1="537.6" y1="384" x2="537.6" y2="394"/>
	<line class="st5" x1="547.2" y1="384" x2="547.2" y2="394"/>
	<line class="st5" x1="556.8" y1="384" x2="556.8" y2="394"/>
	<line class="st5" x1="566.4" y1="384" x2="566.4" y2="394"/>
	<line class="st5" x1="585.6" y1="384" x2="585.6" y2="394"/>
	<line class="st5" x1="595.2" y1="384" x2="595.2" y2="394"/>
	<line class="st5" x1="604.8" y1="384" x2="604.8" y2="394"/>
	<line class="st5" x1="614.4" y1="384" x2="614.4" y2="394"/>
	<line class="st5" x1="633.6" y1="384" x2="633.6" y2="394"/>
	<line class="st5" x1="643.2" y1="384" x2="643.2" y2="394"/>
	<line class="st5" x1="652.8" y1="384" x2="652.8" y2="394"/>
	<line class="st5" x1="662.4" y1="384" x2="662.4" y2="394"/>
	<line class="st5" x1="681.6" y1="384" x2="681.6" y2="394"/>
	<line class="st5" x1="691.2" y1="384" x2="691.2" y2="394"/>
	<line class="st5" x1="700.8" y1="384" x2="700.8" y2="394"/>
	<line class="st5" x1="710.4" y1="384" x2="710.4" y2="394"/>
	<line class="st5" x1="729.6" y1="384" x2="729.6" y2="394"/>
	<line class="st5" x1="739.2" y1="384" x2="739.2" y2="394"/>
	<line class="st5" x1="748.8" y1="384" x2="748.8" y2="394"/>
	<line class="st5" x1="758.4" y1="384" x2="758.4" y2="394"/>
	<line class="st5" x1="777.6" y1="384" x2="777.6" y2="394"/>
	<line class="st5" x1="787.2" y1="384" x2="787.2" y2="394"/>
	<line class="st5" x1="796.8" y1="384" x2="796.8" y2="394"/>
	<line class="st5" x1="806.4" y1="384" x2="806.4" y2="394"/>
	<line class="st4" x1="816" y1="384" x2="816" y2="403"/>
	<line class="st4" x1="864" y1="384" x2="864" y2="403"/>
	<line class="st4" x1="912" y1="384" x2="912" y2="403"/>
	<line class="st4" x1="960" y1="384" x2="960" y2="403"/>
	<line class="st4" x1="1008" y1="384" x2="1008" y2="403"/>
	<line class="st4" x1="1056" y1="384" x2="1056" y2="403"/>
	<line class="st4" x1="1104" y1="384" x2="1104" y2="403"/>
	<line class="st4" x1="1152" y1="384" x2="1152" y2="403"/>
	<line class="st5" x1="825.6" y1="384" x2="825.6" y2="394"/>
	<line class="st5" x1="835.2" y1="384" x2="835.2" y2="394"/>
	<line class="st5" x1="844.8" y1="384" x2="844.8" y2="394"/>
	<line class="st5" x1="854.4" y1="384" x2="854.4" y2="394"/>
	<line class="st5" x1="873.6" y1="384" x2="873.6" y2="394"/>
	<line class="st5" x1="883.2" y1="384" x2="883.2" y2="394"/>
	<line class="st5" x1="892.8" y1="384" x2="892.8" y2="394"/>
	<line class="st5" x1="902.4" y1="384" x2="902.4" y2="394"/>
	<line class="st5" x1="921.6" y1="384" x2="921.6" y2="394"/>
	<line class="st5" x1="931.2" y1="384" x2="931.2" y2="394"/>
	<line class="st5" x1="940.8" y1="384" x2="940.8" y2="394"/>
	<line class="st5" x1="950.4" y1="384" x2="950.4" y2="394"/>
	<line class="st5" x1="969.6" y1="384" x2="969.6" y2="394"/>
	<line class="st5" x1="979.2" y1="384" x2="979.2" y2="394"/>
	<line class="st5" x1="988.8" y1="384" x2="988.8" y2="394"/>
	<line class="st5" x1="998.4" y1="384" x2="998.4" y2="394"/>
	<line class="st5" x1="1017.6" y1="384" x2="1017.6" y2="394"/>
	<line class="st5" x1="1027.2" y1="384" x2="1027.2" y2="394"/>
	<line class="st5" x1="1036.8" y1="384" x2="1036.8" y2="394"/>
	<line class="st5" x1="1046.4" y1="384" x2="1046.4" y2="394"/>
	<line class="st5" x1="1065.6" y1="384" x2="1065.6" y2="394"/>
	<line class="st5" x1="1075.2" y1="384" x2="1075.2" y2="394"/>
	<line class="st5" x1="1084.8" y1="384" x2="1084.8" y2="394"/>
	<line class="st5" x1="1094.4" y1="384" x2="1094.4" y2="394"/>
	<line class="st5" x1="1113.6" y1="384" x2="1113.6" y2="394"/>
	<line class="st5" x1="1123.2" y1="384" x2="1123.2" y2="394"/>
	<line class="st5" x1="1132.8" y1="384" x2="1132.8" y2="394"/>
	<line class="st5" x1="1142.4" y1="384" x2="1142.4" y2="394"/>
	<line class="st5" x1="1161.6" y1="384" x2="1161.6" y2="394"/>
	<line class="st5" x1="1171.2" y1="384" x2="1171.2" y2="394"/>
	<line class="st5" x1="1180.8" y1="384" x2="1180.8" y2="394"/>
	<line class="st5" x1="1190.4" y1="384" x2="1190.4" y2="394"/>
	<line class="st4" x1="1200" y1="384" x2="1200" y2="403"/>
	<line class="st4" x1="1248" y1="384" x2="1248" y2="403"/>
	<line class="st4" x1="1296" y1="384" x2="1296" y2="403"/>
	<line class="st4" x1="1344" y1="384" x2="1344" y2="403"/>
	<line class="st4" x1="1392" y1="384" x2="1392" y2="403"/>
	<line class="st4" x1="1440" y1="384" x2="1440" y2="403"/>
	<line class="st4" x1="1488" y1="384" x2="1488" y2="403"/>
	<line class="st4" x1="1536" y1="384" x2="1536" y2="403"/>
	<line class="st5" x1="1209.6" y1="384" x2="1209.6" y2="394"/>
	<line class="st5" x1="1219.2" y1="384" x2="1219.2" y2="394"/>
	<line class="st5" x1="1228.8" y1="384" x2="1228.8" y2="394"/>
	<line class="st5" x1="1238.4" y1="384" x2="1238.4" y2="394"/>
	<line class="st5" x1="1257.6" y1="384" x2="1257.6" y2="394"/>
	<line class="st5" x1="1267.2" y1="384" x2="1267.2" y2="394"/>
	<line class="st5" x1="1276.8" y1="384" x2="1276.8" y2="394"/>
	<line class="st5" x1="1286.4" y1="384" x2="1286.4" y2="394"/>
	<line class="st5" x1="1305.6" y1="384" x2="1305.6" y2="394"/>
	<line class="st5" x1="1315.2" y1="384" x2="1315.2" y2="394"/>
	<line class="st5" x1="1324.8" y1="384" x2="1324.8" y2="394"/>
	<line class="st5" x1="1334.4" y1="384" x2="1334.4" y2="394"/>
	<line class="st5" x1="1353.6" y1="384" x2="1353.6" y2="394"/>
	<line class="st5" x1="1363.2" y1="384" x2="1363.2" y2="394"/>
	<line class="st5" x1="1372.8" y1="384" x2="1372.8" y2="394"/>
	<line class="st5" x1="1382.4" y1="384" x2="1382.4" y2="394"/>
	<line class="st5" x1="1401.6" y1="384" x2="1401.6" y2="394"/>
	<line class="st5" x1="1411.2" y1="384" x2="1411.2" y2="394"/>
	<line class="st5" x1="1420.8" y1="384" x2="1420.8" y2="394"/>
	<line class="st5" x1="1430.4" y1="384" x2="1430.4" y2="394"/>
	<line class="st5" x1="1449.6" y1="384" x2="1449.6" y2="394"/>
	<line class="st5" x1="1459.2" y1="384" x2="1459.2" y2="394"/>
	<line class="st5" x1="1468.8" y1="384" x2="1468.8" y2="394"/>
	<line class="st5" x1="1478.4" y1="384" x2="1478.4" y2="394"/>
	<line class="st5" x1="1497.6" y1="384" x2="1497.6" y2="394"/>
	<line class="st5" x1="1507.2" y1="384" x2="1507.2" y2="394"/>
	<line class="st5" x1="1516.8" y1="384" x2="1516.8" y2="394"/>
	<line class="st5" x1="1526.4" y1="384" x2="1526.4" y2="394"/>
	<line class="st5" x1="1545.6" y1="384" x2="1545.6" y2="394"/>
	<line class="st5" x1="1555.2" y1="384" x2="1555.2" y2="394"/>
	<line class="st5" x1="1564.8" y1="384" x2="1564.8" y2="394"/>
	<line class="st5" x1="1574.4" y1="384" x2="1574.4" y2="394"/>
	<line class="st4" x1="1584" y1="384" x2="1584" y2="403"/>
	<g>
		<path d="M45.1,418c0-1.5,0.2-2.7,0.7-3.4s1.2-1.1,2.2-1.1c1,0,1.7,0.4,2.2,1.1s0.7,1.9,0.7,3.4c0,1.5-0.2,2.7-0.7,3.4
			s-1.2,1.1-2.2,1.1c-1,0-1.7-0.4-2.2-1.1S45.1,419.5,45.1,418z M48,415c-0.4,0-0.7,0.2-0.9,0.7s-0.3,1.3-0.3,2.3c0,0.3,0,0.6,0,0.9
			l2-3.2c0,0,0,0,0,0C48.7,415.2,48.4,415,48,415z M47.1,420.4c0.2,0.5,0.5,0.7,0.9,0.7c0.4,0,0.7-0.2,0.9-0.7s0.3-1.3,0.3-2.3
			c0-0.4,0-0.8,0-1.1l-2,3.3C47.1,420.3,47.1,420.3,47.1,420.4z"/>
	</g>
	<g>
		<path d="M285.5,413.7h4.8v1.5h-3.4v1.6c0.1-0.1,0.3-0.1,0.5-0.1s0.3,0,0.5,0c0.9,0,1.6,0.3,2.1,0.8s0.8,1.3,0.8,2.1
			c0,0.9-0.3,1.6-0.9,2.2s-1.4,0.8-2.4,0.8c-0.4,0-0.8,0-1.1-0.1s-0.8-0.2-1.2-0.3v-1.6c0.3,0.2,0.7,0.3,1,0.4s0.7,0.1,1,0.1
			c0.6,0,1.1-0.1,1.4-0.4s0.5-0.6,0.5-1.1c0-0.5-0.2-0.8-0.5-1.1s-0.7-0.4-1.3-0.4c-0.3,0-0.6,0-0.9,0.1s-0.6,0.2-0.9,0.3V413.7z"/>
	</g>
	<g>
		<path d="M521.9,420.9h1.9v-5.7l-1.8,0.4v-1.6l1.8-0.4h1.7v7.2h1.9v1.5h-5.5V420.9z"/>
		<path d="M528.7,418c0-1.5,0.2-2.7,0.7-3.4s1.2-1.1,2.2-1.1c1,0,1.7,0.4,2.2,1.1s0.7,1.9,0.7,3.4c0,1.5-0.2,2.7-0.7,3.4
			s-1.2,1.1-2.2,1.1c-1,0-1.7-0.4-2.2-1.1S528.7,419.5,528.7,418z M531.6,415c-0.4,0-0.7,0.2-0.9,0.7s-0.3,1.3-0.3,2.3
			c0,0.3,0,0.6,0,0.9l2-3.2c0,0,0,0,0,0C532.3,415.2,532,415,531.6,415z M530.7,420.4c0.2,0.5,0.5,0.7,0.9,0.7
			c0.4,0,0.7-0.2,0.9-0.7s0.3-1.3,0.3-2.3c0-0.4,0-0.8,0-1.1l-2,3.3C530.7,420.3,530.7,420.3,530.7,420.4z"/>
	</g>
	<g>
		<path d="M761.9,420.9h1.9v-5.7l-1.8,0.4v-1.6l1.8-0.4h1.7v7.2h1.9v1.5h-5.5V420.9z"/>
		<path d="M769.1,413.7h4.8v1.5h-3.4v1.6c0.1-0.1,0.3-0.1,0.5-0.1s0.3,0,0.5,0c0.9,0,1.6,0.3,2.1,0.8s0.8,1.3,0.8,2.1
			c0,0.9-0.3,1.6-0.9,2.2s-1.4,0.8-2.4,0.8c-0.4,0-0.8,0-1.1-0.1s-0.8-0.2-1.2-0.3v-1.6c0.3,0.2,0.7,0.3,1,0.4s0.7,0.1,1,0.1
			c0.6,0,1.1-0.1,1.4-0.4s0.5-0.6,0.5-1.1c0-0.5-0.2-0.8-0.5-1.1s-0.7-0.4-1.3-0.4c-0.3,0-0.6,0-0.9,0.1s-0.6,0.2-0.9,0.3V413.7z"/>
	</g>
	<g>
		<path d="M1003.3,420.9h3.7v1.5h-5.6v-1.5l0.9-1c1.1-1.2,1.8-1.9,2-2.2c0.3-0.3,0.5-0.6,0.6-0.9s0.2-0.5,0.2-0.8
			c0-0.4-0.1-0.7-0.4-0.9s-0.6-0.3-1-0.3c-0.3,0-0.7,0.1-1,0.2s-0.8,0.3-1.2,0.5V414c0.4-0.2,0.8-0.3,1.2-0.3s0.8-0.1,1.2-0.1
			c0.9,0,1.7,0.2,2.2,0.6s0.8,1,0.8,1.8c0,0.3-0.1,0.7-0.2,1s-0.3,0.6-0.6,1c-0.2,0.3-0.8,0.9-1.7,1.8
			C1004,420.2,1003.6,420.6,1003.3,420.9z"/>
		<path d="M1008.7,418c0-1.5,0.2-2.7,0.7-3.4s1.2-1.1,2.2-1.1c1,0,1.7,0.4,2.2,1.1s0.7,1.9,0.7,3.4c0,1.5-0.2,2.7-0.7,3.4
			s-1.2,1.1-2.2,1.1c-1,0-1.7-0.4-2.2-1.1S1008.7,419.5,1008.7,418z M1011.6,415c-0.4,0-0.7,0.2-0.9,0.7s-0.3,1.3-0.3,2.3
			c0,0.3,0,0.6,0,0.9l2-3.2c0,0,0,0,0,0C1012.3,415.2,1012,415,1011.6,415z M1010.7,420.4c0.2,0.5,0.5,0.7,0.9,0.7
			c0.4,0,0.7-0.2,0.9-0.7s0.3-1.3,0.3-2.3c0-0.4,0-0.8,0-1.1l-2,3.3C1010.7,420.3,1010.7,420.3,1010.7,420.4z"/>
	</g>
	<path d="M440-33.8"/>
</g>
<path class="st6" d="M1058.6,199.6c-25.5,0,3.2,41.1-24.8,41.1s-26.6,142.6-28.3,110.1c-12.7-246.5,6.8-333.1-44.7-64.8
	c-6,31.4-17.5-38.4-48-38.4s-40.2,38.4-46.3,12.1c-21.7-94.4-16.7-61-50.1,45.5c-8.2,26.2-12.5-115.2-49-115.2s-19.5,6.3-47,6.3
	s-19.4-47.2-45.9-47.2S645,183,621.5,183s-18.7,7-46.2,7s-18.2,18.2-44.7,18.2s-25.5,17.8-53,17.8s-13.6,24.2-43.1,24.2
	s-24,28.8-50.5,28.8s-21-24.3-48-24.3s-19.7,12.1-47.2,12.1s-23.6,12.1-51.1,12.1s-18.2-12.1-45.7-12.1s-19.5,9.6-48,9.6
	s-20.2-7.1-47.2-7.1s-21.3,7.1-48.8,7.1"/>
<g>
	<path class="st7" d="M51.4,289.5h1v1.9h1.3v-1.9h1v5.1h-1v-2.3h-1.3v2.3h-1V289.5z"/>
	<path class="st7" d="M62,289.5h1.2l1.4,5.1h-1l-0.3-1.3h-1.4l-0.3,1.3h-1L62,289.5z M62.6,290.5l-0.5,2.1h1L62.6,290.5z"/>
	<path class="st7" d="M70.6,289.5H72c0.7,0,1.2,0.1,1.5,0.4c0.3,0.2,0.5,0.7,0.5,1.2s-0.2,1-0.5,1.2c-0.3,0.3-0.8,0.4-1.5,0.4h-0.4
		v1.9h-1V289.5z M71.6,290.4v1.5H72c0.3,0,0.6-0.1,0.7-0.2c0.1-0.1,0.2-0.3,0.2-0.6s-0.1-0.5-0.2-0.6c-0.1-0.1-0.4-0.2-0.7-0.2H71.6
		z"/>
	<path class="st7" d="M80.2,289.5h1.4c0.7,0,1.2,0.1,1.5,0.4c0.3,0.2,0.5,0.7,0.5,1.2s-0.2,1-0.5,1.2c-0.3,0.3-0.8,0.4-1.5,0.4h-0.4
		v1.9h-1V289.5z M81.2,290.4v1.5h0.4c0.3,0,0.6-0.1,0.7-0.2c0.1-0.1,0.2-0.3,0.2-0.6s-0.1-0.5-0.2-0.6c-0.1-0.1-0.4-0.2-0.7-0.2
		H81.2z"/>
	<path class="st7" d="M89.8,290.4v-0.9h3v0.9h-1v3.3h1v0.9h-3v-0.9h1v-3.3H89.8z"/>
	<path class="st7" d="M99.2,289.5h1.1l1.4,3.7v-3.7h0.9v5.1h-1.1l-1.4-3.7v3.7h-0.9V289.5z"/>
	<path class="st7" d="M112.1,294.6h-3.2v-5.1h3.2v0.9h-2.2v1.1h2v0.9h-2v1.3h2.2V294.6z"/>
	<path class="st7" d="M119.7,292.4c-0.5-0.2-0.9-0.4-1-0.6s-0.3-0.5-0.3-0.9c0-0.5,0.1-0.8,0.4-1.1s0.7-0.4,1.2-0.4
		c0.2,0,0.5,0,0.7,0.1s0.5,0.1,0.7,0.2v1c-0.2-0.2-0.4-0.3-0.7-0.3c-0.2-0.1-0.4-0.1-0.7-0.1c-0.2,0-0.4,0-0.6,0.1
		c-0.1,0.1-0.2,0.2-0.2,0.4c0,0.1,0,0.3,0.1,0.4c0.1,0.1,0.3,0.2,0.6,0.3l0.4,0.2c0.4,0.2,0.7,0.3,0.9,0.6c0.2,0.2,0.3,0.6,0.3,0.9
		c0,0.5-0.2,0.9-0.5,1.2c-0.3,0.3-0.8,0.4-1.4,0.4c-0.3,0-0.5,0-0.8-0.1c-0.3-0.1-0.5-0.2-0.7-0.3v-1c0.3,0.2,0.5,0.3,0.8,0.4
		c0.3,0.1,0.5,0.1,0.7,0.1c0.2,0,0.4-0.1,0.6-0.2c0.1-0.1,0.2-0.3,0.2-0.5c0-0.2,0-0.3-0.1-0.4s-0.2-0.2-0.4-0.3L119.7,292.4z"/>
	<path class="st7" d="M129.2,292.4c-0.5-0.2-0.9-0.4-1-0.6s-0.3-0.5-0.3-0.9c0-0.5,0.1-0.8,0.4-1.1s0.7-0.4,1.2-0.4
		c0.2,0,0.5,0,0.7,0.1s0.5,0.1,0.7,0.2v1c-0.2-0.2-0.4-0.3-0.7-0.3c-0.2-0.1-0.4-0.1-0.7-0.1c-0.2,0-0.4,0-0.6,0.1
		c-0.1,0.1-0.2,0.2-0.2,0.4c0,0.1,0,0.3,0.1,0.4c0.1,0.1,0.3,0.2,0.6,0.3l0.4,0.2c0.4,0.2,0.7,0.3,0.9,0.6c0.2,0.2,0.3,0.6,0.3,0.9
		c0,0.5-0.2,0.9-0.5,1.2c-0.3,0.3-0.8,0.4-1.4,0.4c-0.3,0-0.5,0-0.8-0.1c-0.3-0.1-0.5-0.2-0.7-0.3v-1c0.3,0.2,0.5,0.3,0.8,0.4
		c0.3,0.1,0.5,0.1,0.7,0.1c0.2,0,0.4-0.1,0.6-0.2c0.1-0.1,0.2-0.3,0.2-0.5c0-0.2,0-0.3-0.1-0.4s-0.2-0.2-0.4-0.3L129.2,292.4z"/>
	<path class="st7" d="M147.1,289.5h1.6c0.6,0,1,0.1,1.3,0.3c0.3,0.2,0.4,0.5,0.4,1c0,0.3-0.1,0.6-0.3,0.8c-0.2,0.2-0.4,0.3-0.7,0.3
		c0.4,0,0.7,0.2,0.9,0.4c0.2,0.2,0.3,0.5,0.3,0.9c0,0.5-0.1,0.8-0.4,1.1c-0.3,0.2-0.8,0.3-1.4,0.3h-1.6V289.5z M148.1,290.3v1.2h0.7
		c0.3,0,0.4,0,0.5-0.1c0.1-0.1,0.2-0.2,0.2-0.5c0-0.2-0.1-0.4-0.2-0.5c-0.1-0.1-0.3-0.1-0.5-0.1H148.1z M148.1,292.3v1.5h0.7
		c0.3,0,0.5-0.1,0.7-0.2c0.1-0.1,0.2-0.3,0.2-0.6c0-0.3-0.1-0.5-0.2-0.6c-0.1-0.1-0.4-0.2-0.7-0.2H148.1z"/>
	<path class="st7" d="M157.7,289.5h1.2l1.4,5.1h-1l-0.3-1.3h-1.4l-0.3,1.3h-1L157.7,289.5z M158.3,290.5l-0.5,2.1h1L158.3,290.5z"/>
	<path class="st7" d="M167.5,292.4c-0.5-0.2-0.9-0.4-1-0.6s-0.3-0.5-0.3-0.9c0-0.5,0.1-0.8,0.4-1.1s0.7-0.4,1.2-0.4
		c0.2,0,0.5,0,0.7,0.1s0.5,0.1,0.7,0.2v1c-0.2-0.2-0.4-0.3-0.7-0.3c-0.2-0.1-0.4-0.1-0.7-0.1c-0.2,0-0.4,0-0.6,0.1
		c-0.1,0.1-0.2,0.2-0.2,0.4c0,0.1,0,0.3,0.1,0.4c0.1,0.1,0.3,0.2,0.6,0.3l0.4,0.2c0.4,0.2,0.7,0.3,0.9,0.6c0.2,0.2,0.3,0.6,0.3,0.9
		c0,0.5-0.2,0.9-0.5,1.2c-0.3,0.3-0.8,0.4-1.4,0.4c-0.3,0-0.5,0-0.8-0.1c-0.3-0.1-0.5-0.2-0.7-0.3v-1c0.3,0.2,0.5,0.3,0.8,0.4
		c0.3,0.1,0.5,0.1,0.7,0.1c0.2,0,0.4-0.1,0.6-0.2c0.1-0.1,0.2-0.3,0.2-0.5c0-0.2,0-0.3-0.1-0.4s-0.2-0.2-0.4-0.3L167.5,292.4z"/>
	<path class="st7" d="M179.1,294.6H176v-5.1h3.2v0.9H177v1.1h2v0.9h-2v1.3h2.2V294.6z"/>
	<path class="st7" d="M185.7,294.6v-5.1h1v4.2h2.2v0.9H185.7z"/>
	<path class="st7" d="M195.1,290.4v-0.9h3v0.9h-1v3.3h1v0.9h-3v-0.9h1v-3.3H195.1z"/>
	<path class="st7" d="M204.5,289.5h1.1l1.4,3.7v-3.7h0.9v5.1h-1.1l-1.4-3.7v3.7h-0.9V289.5z"/>
	<path class="st7" d="M217.4,294.6h-3.2v-5.1h3.2v0.9h-2.2v1.1h2v0.9h-2v1.3h2.2V294.6z"/>
</g>
<path class="st8" d="M185.7-42.5"/>
<path d="M970.3,24.8"/>
<path class="st8" d="M77.6,163.2"/>
<path class="st8" d="M1076.1,134.4"/>
<path class="st8" d="M1104,28.9"/>
<g>
	<path class="st9" d="M104.6,70.7c3.3-4.1,4.4-6.6,4.4-10.5V45c0-4.4-2-6.4-6.1-6.4h-2c-4.2,0-6.3,2-6.3,6.4v19.4h-16V44.2
		c0-13.6,6.7-20.4,20.2-20.4h6.6c13.5,0,20.2,6.7,20.2,20.4v15.2c0,7.7-1.7,13.3-8.5,21.6l-17.7,22.2c-3.4,4.4-4.5,6.9-4.5,12.1v3.9
		h30.7v15.2H78.3v-19.7c0-8,2-13.5,8.6-21.8L104.6,70.7z"/>
	<path class="st9" d="M238.5,24.8h16.1l-18,71.3v38.4h-16.8V96.8l-18-72h17.2l9.6,46.2L238.5,24.8z"/>
	<path class="st9" d="M297.6,24.8V40H277v31h19.7v15.2H277v33h20.8v15.2h-37.6V24.8H297.6z"/>
	<path class="st9" d="M356.9,134.4h-16.6l-2.2-17.2h-17.4l-2,17.2h-15.5l15.7-109.8h22.2L356.9,134.4z M322.6,102.3h13.6l-6.7-54.8
		L322.6,102.3z"/>
	<path class="st9" d="M411.9,97.1v37.3h-16.8v-37c0-4.9-2.2-7-7-7h-7.5v44h-16.8V24.8h27.6c13.6,0,20.4,6.7,20.4,20.4v20.7
		c0,9.7-3.4,14.4-9.6,16.9C409.1,84.6,411.9,88.8,411.9,97.1z M388.7,39.6h-8.1v36.2h7.5c4.7,0,6.9-2.2,6.9-6.7V45.9
		C395,41.7,392.9,39.6,388.7,39.6z"/>
	<path class="st9" d="M469,97.1V115c0,13.6-6.7,20.4-20.4,20.4h-7.4c-13.6,0-20.2-6.7-20.2-20.2V92h16.3v22.6c0,4.2,2,6.3,6.4,6.3
		h2.2c4.4,0,6.4-2,6.4-6.3v-15c0-4.5-1.6-6.6-4.7-8.9l-16.9-12.4c-7.5-5.3-9.7-10.5-9.7-19v-15c0-13.6,6.7-20.4,20.4-20.4h7
		c13.5,0,20.2,6.7,20.2,20.2v19.9h-16.4V44.7c0-4.2-2-6.3-6.3-6.3h-2c-4.2,0-6.3,2-6.3,6.3v12.2c0,4.5,1.6,6.7,4.7,8.9l16.9,12.4
		C466.7,83.5,469,88.2,469,97.1z"/>
	<path class="st9" d="M527,135.3h-8.9c-13.6,0-20.4-6.7-20.4-20.4V44.2c0-13.6,6.7-20.4,20.4-20.4h8.9c13.6,0,20.4,6.7,20.4,20.4
		V115C547.4,128.6,540.6,135.3,527,135.3z M524.3,38.6h-3.4c-4.4,0-6.4,2-6.4,6.4v69.2c0,4.4,2,6.4,6.4,6.4h3.4c4.2,0,6.3-2,6.3-6.4
		V45C530.6,40.6,528.6,38.6,524.3,38.6z"/>
	<path class="st9" d="M593.6,24.8V40h-19.7v31.6h19v15.2h-19v47.6h-16.8V24.8H593.6z"/>
	<polygon class="st9" points="144,25 160.7,25 160.9,135.2 144,135.4 	"/>
	<g>
		<polygon class="st9" points="669.8,38.4 650.6,38.2 641,37.8 641,38.1 622,37.8 622,25.1 669.7,24.8 		"/>
		<polygon class="st8" points="650.6,38.2 641,38.2 641,38 		"/>
		<polygon class="st9" points="655,121.1 655,121 640,121 640,38 654.2,38.2 		"/>
		<polygon class="st9" points="622.8,120.5 622.8,134 671,134 670.8,121.1 		"/>
	</g>
	<g>
		<polygon class="st9" points="677.2,28.9 677.9,134.1 690,134.4 690,29 		"/>
		<polyline class="st9" points="680.3,30 732.6,111.2 733.8,129.3 680.3,47.9 		"/>
		<polygon class="st9" points="724.2,28.9 724.9,134.1 737,134.4 737,29 		"/>
	</g>
	<path class="st10" d="M797.2,81.8c0,29.7-32.3,55.7-42.9,52.3c-5-1.6-3.3-9.2-3.3-52.7c0-42.9-1.6-50.3,3.3-51.9
		C764.9,26,797.2,52,797.2,81.8z"/>
	<g>
		<polygon class="st9" points="846.8,39.4 827.6,39.2 818,38.8 818,39.1 799,38.8 799,26.1 846.7,25.8 		"/>
		<polygon class="st8" points="827.6,39.2 818,39.2 818,39 		"/>
		<polygon class="st9" points="832,122.1 832,122 817,122 817,39 831.2,39.2 		"/>
		<polygon class="st9" points="799.8,121.5 799.8,135 848,135 847.8,122.1 		"/>
	</g>
	<path class="st9" d="M895.5,24.8V40H875v31h19.7v15.2H875v33h20.8v15.2h-37.6V24.8H895.5z"/>
</g>
<g>
	<g>
		<path class="st11" d="M47.2,277.4c1.9,0,1.9-3,0-3C45.3,274.4,45.3,277.4,47.2,277.4L47.2,277.4z"/>
	</g>
</g>
<g>
	<g>
		<path class="st11" d="M47.2,278c1.9,0,1.9-3,0-3C45.3,275,45.3,278,47.2,278L47.2,278z"/>
	</g>
</g>
<g>
	<g>
		<path class="st11" d="M45.4,278c1.9,0,1.9-3,0-3C43.5,275,43.5,278,45.4,278L45.4,278z"/>
	</g>
</g>
<g>
	<g>
		<path class="st11" d="M95.2,270.8c1.9,0,1.9-3,0-3C93.2,267.8,93.2,270.8,95.2,270.8L95.2,270.8z"/>
	</g>
</g>
<circle class="st12" cx="96.8" cy="269.3" r="2.5"/>
<circle class="st12" cx="48" cy="276.4" r="2.5"/>
<circle class="st12" cx="145" cy="277.4" r="2.5"/>
<circle class="st12" cx="192" cy="266.8" r="2.5"/>
<circle class="st12" cx="240.4" cy="278.9" r="2.5"/>
<circle class="st12" cx="287.8" cy="266.8" r="2.5"/>
<circle class="st12" cx="336" cy="254.7" r="2.5"/>
<circle class="st12" cx="384.8" cy="279.4" r="2.5"/>
<circle class="st12" cx="432" cy="250.6" r="2.5"/>
<circle class="st12" cx="481.1" cy="226.9" r="2.5"/>
<circle class="st12" cx="527.8" cy="208.7" r="2.5"/>
<circle class="st12" cx="576.3" cy="191" r="2.5"/>
<circle class="st12" cx="623.8" cy="183.9" r="2.5"/>
<circle class="st12" cx="672.8" cy="149.6" r="2.5"/>
<circle class="st12" cx="720.4" cy="196.3" r="2.5"/>
<circle class="st12" cx="768.4" cy="191" r="2.5"/>
<circle class="st12" cx="815.4" cy="307.7" r="2.5"/>
<circle class="st12" cx="866" cy="259.2" r="2.5"/>
<circle class="st12" cx="912.8" cy="248.1" r="2.5"/>
<circle class="st12" cx="960" cy="291.6" r="2.5"/>
<circle class="st12" cx="1006.5" cy="354.8" r="2.5"/>
<circle class="st12" cx="1057" cy="200.6" r="2.5"/>
</svg>
