<?xml version="1.0" encoding="utf-8"?>
<!-- Generator: Adobe Illustrator 19.2.1, SVG Export Plug-In . SVG Version: 6.00 Build 0)  -->
<svg version="1.1" xmlns="http://www.w3.org/2000/svg" xmlns:xlink="http://www.w3.org/1999/xlink" x="0px" y="0px"
	 viewBox="0 0 600 800" style="enable-background:new 0 0 600 800;" xml:space="preserve">
<style type="text/css">
	.st0{display:none;}
	.st1{display:inline;opacity:0.38;fill:none;stroke:#DA3217;stroke-width:5;}
	.st2{display:inline;opacity:0.42;fill:none;stroke:#314198;stroke-width:3;}
	.st3{fill:#1E2188;}
	.st4{fill:#EF7D1B;}
	.st5{fill:#504590;}
	.st6{fill:#67B956;}
</style>
<g id="图层_1" class="st0">
</g>
<g id="图层_2" class="st0">
	<circle class="st1" cx="300.3" cy="396" r="260.8"/>
	<line class="st2" x1="42.1" y1="433" x2="555.9" y2="433"/>
</g>
<g id="图层_3">
	<path class="st3" d="M414.3,107.7c0,0-49.7-8-56.3,15.3c0,0-10,15,22.5,28c0,0,38.2,18,40.5-5c0,0,6.1-18.6-13-29
		C408,117,396.7,112.3,414.3,107.7z"/>
	<path class="st4" d="M314.2,135.6c0,0-12.3-13.1-31.7-5.4c0,0-5.8,3.6-3.8,5.9c0,0-1.5,2.7,10,0c0,0-4,3.8-5.5,7.1
		c0,0-5.2,6.2,4,6.5c0,0,7.8,0.2,0.8,5.2c0,0-6.5,9.4,4.5,2.7c0,0,16.2-13.3,23.5-13.7c0,0,3.8-1.7-2.2-3
		C313.8,141,310.5,138.3,314.2,135.6z"/>
	<path class="st3" d="M375.2,235.8c0,0-6.5-12.2-15-14.5c0,0-6.5-1.2-9.2,0c0,0-12.2,1.5-17,12.5c0,0-6.2,15.8,7,20.2
		c0,0,8.2,3.2,11.5,3.8c0,0,4.5,0.5,12.8,7.2c0,0,10,5,17.2-2.8c0,0,10.6-8.8,0-20.2C382.5,242,376.6,238.1,375.2,235.8z"/>
	<path class="st3" d="M281,245.5c0,0,13,23,3.5,29c0,0-4.5,5.2-1.5,13.5c0,0,3.2,7.8-4.2,10.8c0,0-2.2-5-5-6.8c0,0-9.2-6.5-1.5-19.9
		c0,0,4.8-9.9,2.8-12.1C275,260,272.8,250.5,281,245.5z"/>
	<path class="st5" d="M334,325.3c0,0,8.3-12,0-16c0,0-1.7,0.7-3.7,3.3c0,0-16.5,14.2-34.8,12.7c0,0-2.3-0.3-2.2,3.7
		s0.5,10,16.3,11.3c0,0,5.3-0.7,8.3-1.5c0,0,7-1,1.8,5.2c0,0-2.3,3.2-8.8,4.2c0,0-3.8,1.5,2.2,3.2c0,0,15.2,7.3,31.5-9.7
		c0,0,26.3-24.2,28.3-45.3c0,0-0.3-1.7-1.7,0c0,0-21.5,36.2-34.2,41.8c0,0-2.8,2.7-8.5,1.8c0,0-7.5,0-0.7-6.8
		C328,333.2,333.4,326.3,334,325.3z"/>
	<path class="st3" d="M480,218c0,0-29-13.7-14.7,10.7l1.3,2c0,0-10.3-2-3.3,7.7c0,0,7.8,35.3-2.4,43c0,0,1.8-9.5-3.2-14.7
		c0,0-6.3,42.4-23.7,47.4c0,0,6.3-14.8,4.3-18.4c0,0-15.7,23.1-23,24.1c0,0,4.7-7.3,4-10.3c0,0-9.3,11.3-14.7,10.3c0,0-7,2-9.7,10
		c0,0-14,29.7-53.7,29.3c0,0-43.7,9.7-60.3-24.3c0,0-1-6,0-9c0,0,2.3-9.7-4-5.3c0,0-3.3,0.5-3.3,3.9c0,0-2.3-4.6-1.7-8.6
		c0,0,0.7-3.3,2.3-2.7c0,0-9.3-1.7-16.7-11.3c0,0-1,1.7,0,3.7c0,0-17-4.2-17-38.7c0,0-3.3-6-7.3,5.5c0,0-4.3,4.9,0,10.2
		c0,0,6,7.7,4.3,9.7c0,0-0.3,1-4.3,0c0,0-5-2.8,1.3,6.8l5,7.2h-2.3c0,0-7.3-4.3-4.3,10.7c0,0,0.3,24,16.3,45.7c0,0-16.7,2-14.7,7
		c0,0-1.3,1.7,7.3,11.7c0,0-11.3-2-8.7,3c0,0,2.7,3.7,2.3,6c0,0-23.9,1.3-3.3,18.3l-9.2,5l337.5-4.8
		C560.8,408.5,568.5,273.5,480,218z"/>
	<path class="st4" d="M199.7,78c0,0,13,9.3,17.7,10c0,0,7.3,4,2.3,6.7c0,0-5.3,9,15.7,17.3c0,0,6.7,0,13.7,8c0,0-25.9,1.8-24.7,14
		c0,0,3.5,7.8,18.8,7.6c0,0,11.6-0.6,11.9,10.1c0,0-2.7,11.9-15.7,8.4c0,0-2.3-0.8-1-4.8c0,0-1.7-3.3-5.3,2.4c0,0-6,4.6-5.7,7.3
		c0,0-11-3-12,1.3c0,0-1,3,4,4.3c0,0,1,10.3-14,11c0,0-11.3,1-5.7-7.7c0,0,8.7-8.3,9-16.3c0,0,4-6.4-15-5c0,0-13,3-16.3-1.3
		c0,0,1.7-5.1,8-7.4c0,0,28.7-18-4.7-39c0,0,8.7-0.3,21.3,5.3c0,0,7,3,7-8c0,0,1-7-4.3-13.3C204.7,89,199,82.3,199.7,78z"/>
	<path class="st4" d="M269.2,105c0,0,6.8,8.3,5.8,12.3c0,0,7.3-7.3,7.3-15c0,0-1-9-6.6-2.7C275.7,99.7,272.3,102.3,269.2,105z"/>
	<path class="st4" d="M240,176c0,0-11.7-6.3-12.7,5.7l9.7,4.3C237,186,238,179,240,176z"/>
	<path class="st4" d="M252,184.3c0,0,4.7,9.7-12,12c0,0-17,3.3-19.3,8c0,0-9.2,11.7,2.6,9.8c0,0,4.4-9.8,12.8-8.8c0,0-9,2.1-6.7,10
		c0,0-0.7,4.6,18.7,1.3c0,0,24.7-8.3,7-15.6C255,201,267.4,193.9,252,184.3z"/>
	<path class="st4" d="M157,162c0,0,17,5.7-3,18.2c0,0-19,13.8-31.7-3.8c0,0,16.7,8.7,17.3,0.7c0,0-3.3-8,9-8.3
		C148.7,168.7,160.7,171.7,157,162z"/>
	<path class="st4" d="M223.2,277.5c0,0,5.8-23.8-26.2-59.6c0,0-10,23.1-33.3,5.1c0,0-13.7-9.3,31.3-14.5c0,0-8.5-3-14.5-4
		c0,0-14.2-4-16.8-17.5c0,0-10.7,0.5-11.7,16.5c0,0,11,0.5,4.5,6c0,0-7.5,12-24.5-3c0,0-1.8-1.3-4.9-5.4c0,0-79.9,73.9-82.8,156.7
		c0,0-9.9,46.7,11.6,55.7l99-0.2c0,0-11.5-14.3,15-24.8c0,0,7,0,2-6.5c0,0,3-3.5,8-4c0,0,38-27.5,35-60.5c0,0,5,3,5,6.8
		c0,0,5.8-7.1-3.8-28.7C216.2,295.6,204,260,223.2,277.5z M191.7,329.7c1.3,9.3-9,0-9,0c-3.7-3.3-14.3-30.9-14.3-30.9
		c-4.7-34.9,16-11.8,16-11.8c10.7,15.3,13.3,40,13.3,40C193,324.3,191.7,329.7,191.7,329.7z"/>
	<path class="st6" d="M47.4,445c-0.8-3.9-0.2-12,7.7-12h77.6c0,0,10,0,9.5,4.3C140,457.8,135.4,546.6,190,593
		c0,0,34.5,41.6,4.6,40.1C194.6,633.1,82.7,616.4,47.4,445z"/>
	<path class="st6" d="M554.5,446.8c0.9-3.9,0.4-12-7.4-12.2l-77.5-1.8c0,0-10-0.2-9.6,4.1c1.8,20.6,4.3,109.4-51.4,154.5
		c0,0-35.5,40.8-5.5,40C403,631.5,515.3,617.4,554.5,446.8z"/>
	<path class="st6" d="M296,658.7c-33.6-1.2-57.8-12.7-57.8-12.7c-19.8-13.3,0-27.8,0-27.8C259.8,605.1,261,579,261,579
		c-2.8-7.8-14-11-14-11c-11.7-0.6-18.1-3-18.1-3c-63.4-20.2-63.3-52-63.3-52c-2-29.3,29.3-13,29.3-13c6.7,7.3,53.7,16,53.7,16
		c9.3,0.7,8-8,8-8c0-15.3-25.3-53.7-25.3-53.7c-16.7-17.3,0-19.3,0-19.3h65h5.2h65c0,0,16.7,2,0,19.3c0,0-25.3,38.3-25.3,53.7
		c0,0-1.3,8.7,8,8c0,0,47-8.7,53.7-16c0,0,31.3-16.3,29.3,13c0,0,0.1,31.8-63.3,52c0,0-6.4,2.4-18.1,3c0,0-11.2,3.2-14,11
		c0,0,1.2,26.1,22.8,39.2c0,0,19.8,14.4,0,27.8c0,0-22.4,11-57.8,12.7H296z"/>
</g>
</svg>
